<svg xmlns="http://www.w3.org/2000/svg" viewBox="0 0 64 64" width="64" height="64">
  <defs>
    <radialGradient id="topHalf" cx="50%" cy="40%" r="60%">
      <stop offset="0%" stop-color="#8B7CFF"/>
      <stop offset="55%" stop-color="#6D5EF8"/>
      <stop offset="100%" stop-color="#4F40E0"/>
    </radialGradient>
    <radialGradient id="bottomHalf" cx="50%" cy="60%" r="60%">
      <stop offset="0%" stop-color="#1B2547"/>
      <stop offset="100%" stop-color="#0B1020"/>
    </radialGradient>
    <linearGradient id="ring" x1="0" y1="0" x2="1" y2="0">
      <stop offset="0%" stop-color="#35C8FF"/>
      <stop offset="50%" stop-color="#F6C453"/>
      <stop offset="100%" stop-color="#FF6FB5"/>
    </linearGradient>
    <radialGradient id="centerBtn" cx="50%" cy="35%" r="60%">
      <stop offset="0%" stop-color="#FFFFFF"/>
      <stop offset="65%" stop-color="#F6C453"/>
      <stop offset="100%" stop-color="#6D5EF8"/>
    </radialGradient>
    <radialGradient id="shine" cx="35%" cy="30%" r="40%">
      <stop offset="0%" stop-color="rgba(255,255,255,0.6)"/>
      <stop offset="100%" stop-color="rgba(255,255,255,0)"/>
    </radialGradient>
  </defs>
  <circle cx="32" cy="32" r="30" fill="#0B1020"/>
  <path d="M32 4 A28 28 0 0 1 60 32 L4 32 A28 28 0 0 1 32 4 Z" fill="url(#topHalf)"/>
  <path d="M4 32 A28 28 0 0 0 60 32 Z" fill="url(#bottomHalf)"/>
  <ellipse cx="22" cy="18" rx="10" ry="6" fill="url(#shine)"/>
  <rect x="2" y="29" width="60" height="6" fill="url(#ring)" opacity="0.95"/>
  <circle cx="32" cy="32" r="9" fill="#0B1020"/>
  <circle cx="32" cy="32" r="7" fill="url(#centerBtn)"/>
  <circle cx="32" cy="32" r="3" fill="#0B1020"/>
  <circle cx="32" cy="32" r="30" fill="none" stroke="rgba(255,255,255,0.18)" stroke-width="1.5"/>
</svg>
